<?xml version="1.0" encoding="utf-8"?>
<!-- Generator: Adobe Illustrator 17.1.0, SVG Export Plug-In . SVG Version: 6.00 Build 0)  -->
<!DOCTYPE svg PUBLIC "-//W3C//DTD SVG 1.1//EN" "http://www.w3.org/Graphics/SVG/1.1/DTD/svg11.dtd">
<svg version="1.1" id="Layer_1" xmlns="http://www.w3.org/2000/svg" xmlns:xlink="http://www.w3.org/1999/xlink" x="0px" y="0px"
	 viewBox="0 0 26.8 33.1" enable-background="new 0 0 26.8 33.1" xml:space="preserve">
<g>
	<g>
		<path fill="#6ABC5B" d="M11.4,0.1L11.4,0.1C5.2,0.1,0.1,5.1,0.1,11.4v20.9c0,0.7,0.8,1,1.3,0.5l6.2-6.2h7.8
			c6.3,0,11.4-5.1,11.4-11.4v0V0.1H11.4z"/>
		<polygon fill="#16A74F" points="7.5,26.7 1.8,26.7 5.4,28.8 		"/>
	</g>
	<g>
		<g>
			<polygon fill="#3AB357" points="26.7,0.1 11.4,0.1 11.4,15.3 			"/>
			<path fill="#16A74F" d="M11.4,0.1L11.4,0.1C5.2,0.1,0.1,5.1,0.1,11.4v15.3l11.4-11.4V0.1z"/>
		</g>
		<g>
			<polygon fill="#82C363" points="26.7,0.1 11.4,15.3 26.7,15.3 			"/>
			<path fill="#6ABC5B" d="M11.4,15.3L0.1,26.7h15.3c6.3,0,11.4-5.1,11.4-11.4v0H11.4z"/>
		</g>
	</g>
</g>
</svg>
